<?xml version="1.0" standalone="no"?>
<!DOCTYPE svg PUBLIC "-//W3C//DTD SVG 20010904//EN"
 "http://www.w3.org/TR/2001/REC-SVG-20010904/DTD/svg10.dtd">
<svg version="1.0" xmlns="http://www.w3.org/2000/svg"
 width="200.000000pt" height="200.000000pt" viewBox="0 0 200.000000 200.000000"
 preserveAspectRatio="xMidYMid meet">

<g transform="translate(0.000000,200.000000) scale(0.100000,-0.100000)"
fill="#000000" stroke="none">
<path d="M968 1795 c-20 -6 -51 -23 -69 -36 -29 -21 -44 -24 -102 -22 -87 3
-114 -11 -173 -86 -34 -43 -59 -64 -94 -79 -53 -22 -87 -69 -111 -152 -8 -24
-33 -78 -56 -120 -49 -84 -48 -78 -33 -305 13 -188 26 -218 114 -277 33 -22
90 -67 126 -98 76 -67 127 -100 154 -100 10 0 42 14 70 32 70 43 121 46 232
15 49 -14 108 -28 131 -32 79 -13 157 29 214 113 18 26 62 79 99 117 53 56 78
93 120 180 57 118 110 264 110 301 0 35 -20 73 -76 144 -63 80 -70 93 -78 152
-8 57 -40 91 -104 112 -31 11 -61 33 -92 66 l-46 50 -85 0 c-46 0 -100 5 -119
11 -78 24 -98 26 -132 14z m110 -25 c29 -11 68 -20 87 -20 19 0 35 -4 35 -10
0 -16 -51 -11 -108 10 -29 11 -69 20 -90 20 -27 0 -33 3 -22 10 22 14 39 12
98 -10z m-419 -119 c-12 -22 -35 -49 -51 -61 -28 -21 -28 -20 7 27 46 63 55
73 61 73 3 0 -5 -18 -17 -39z m826 -38 c14 -9 15 -13 5 -13 -8 0 -26 9 -40 20
-20 16 -21 19 -5 13 11 -3 29 -12 40 -20z m-586 -7 c-67 -19 -177 -80 -239
-133 -50 -43 -52 -43 -20 -9 68 75 217 155 285 154 11 0 -1 -5 -26 -12z m-329
-41 c0 -3 -20 -14 -45 -26 -24 -11 -47 -30 -51 -41 -3 -11 -8 -17 -11 -15 -12
12 22 50 60 68 47 21 47 21 47 14z m551 -26 c-16 -10 -48 -27 -71 -39 -33 -17
-40 -25 -35 -41 6 -17 -20 -32 -209 -124 -119 -57 -216 -106 -216 -110 0 -3
25 -64 55 -137 31 -72 54 -132 52 -134 -5 -5 -132 277 -132 293 0 15 17 25
300 176 94 50 192 103 220 118 54 30 86 28 36 -2z m192 -173 c48 -111 90 -212
93 -223 4 -15 -3 -25 -31 -42 l-37 -21 -29 24 c-16 14 -35 23 -42 20 -6 -3
-27 -25 -45 -49 -39 -54 -74 -73 -155 -86 -77 -13 -120 -47 -115 -93 3 -28 -3
-33 -80 -78 -46 -26 -87 -48 -91 -48 -5 0 -21 38 -36 85 -16 47 -33 82 -38 78
-6 -3 -7 -1 -3 5 4 7 -13 71 -38 143 -26 72 -46 134 -46 138 0 4 95 54 211
110 189 93 210 106 205 125 -4 18 7 28 82 67 48 26 92 47 97 47 6 1 50 -90 98
-202z m355 -111 c3 -38 -2 -73 -18 -120 -25 -76 -37 -84 -15 -10 19 62 19 131
0 185 -20 56 -19 58 7 25 14 -18 23 -47 26 -80z m-344 -182 l39 -36 -39 -34
c-88 -77 -102 -84 -166 -93 -57 -8 -67 -13 -101 -51 -36 -40 -38 -41 -52 -23
-9 10 -23 32 -31 48 -16 29 -16 30 14 57 21 19 46 29 83 34 76 10 113 30 160
86 22 27 44 49 47 49 4 0 25 -17 46 -37z m153 5 c-3 -8 -6 -5 -6 6 -1 11 2 17
5 13 3 -3 4 -12 1 -19z m-16 -45 c-12 -20 -14 -14 -5 12 4 9 9 14 11 11 3 -2
0 -13 -6 -23z m150 0 c-12 -20 -14 -14 -5 12 4 9 9 14 11 11 3 -2 0 -13 -6
-23z m-1223 -217 c10 -10 39 -29 65 -43 65 -33 54 -40 -15 -10 -46 21 -57 31
-71 66 -10 23 -17 49 -16 59 0 9 5 1 11 -18 5 -19 17 -43 26 -54z m739 -72
c-3 -3 -12 -4 -19 -1 -8 3 -5 6 6 6 11 1 17 -2 13 -5z m-44 -11 c-7 -2 -21 -2
-30 0 -10 3 -4 5 12 5 17 0 24 -2 18 -5z m-96 -9 c-3 -3 -12 -4 -19 -1 -8 3
-5 6 6 6 11 1 17 -2 13 -5z m318 -109 c-52 -46 -99 -60 -162 -49 l-48 9 50 2
c85 5 112 12 150 43 52 41 59 38 10 -5z"/>
<path d="M1184 1320 c-49 -19 -32 -70 24 -70 13 0 20 -4 17 -10 -3 -5 -15 -10
-26 -10 -10 0 -19 -5 -19 -11 0 -16 52 -6 63 12 16 26 1 49 -33 49 -16 0 -30
5 -30 10 0 6 6 10 14 10 17 0 30 16 19 23 -5 3 -17 1 -29 -3z"/>
<path d="M1087 1274 c-15 -8 -26 -18 -24 -22 3 -4 12 -25 22 -47 10 -22 20
-41 21 -43 5 -7 64 29 64 39 0 6 -6 6 -19 -1 -26 -13 -31 -13 -31 4 0 8 7 16
15 20 28 10 15 26 -17 20 -33 -5 -33 -5 -10 12 41 31 27 44 -21 18z"/>
<path d="M1023 1243 c-7 -2 -13 -14 -13 -25 0 -16 -5 -19 -29 -13 -37 8 -51
-12 -15 -21 24 -6 26 -10 21 -45 -6 -44 8 -51 25 -14 10 21 16 25 39 20 39 -9
45 10 8 25 -28 12 -30 16 -24 47 3 18 5 33 3 32 -2 0 -9 -3 -15 -6z"/>
<path d="M877 1173 c-11 -10 -8 -123 3 -123 6 0 10 7 10 15 0 19 36 38 60 30
30 -10 24 7 -18 48 -40 39 -44 41 -55 30z m37 -48 c3 -9 0 -15 -9 -15 -8 0
-15 7 -15 15 0 8 4 15 9 15 5 0 11 -7 15 -15z"/>
<path d="M783 1127 c-44 -21 -59 -44 -23 -32 18 6 24 0 37 -34 9 -23 20 -41
24 -41 18 0 18 21 2 55 -17 35 -17 37 0 50 31 22 4 24 -40 2z"/>
<path d="M1030 946 c0 -8 4 -17 9 -20 5 -4 7 3 4 14 -6 23 -13 26 -13 6z"/>
<path d="M1066 947 c3 -10 9 -15 12 -12 3 3 0 11 -7 18 -10 9 -11 8 -5 -6z"/>
<path d="M990 931 c0 -5 7 -14 15 -21 16 -14 18 -10 9 14 -6 17 -24 22 -24 7z"/>
<path d="M344 1650 c-27 -11 -114 -100 -114 -117 0 -28 145 -9 183 25 24 21
21 54 -6 80 -25 24 -31 25 -63 12z m19 -25 c-3 -9 -24 -25 -47 -36 l-41 -20
39 36 c42 38 59 44 49 20z"/>
<path d="M234 1438 c-5 -8 -2 -9 10 -5 13 5 15 3 7 -12 -6 -10 -7 -21 -4 -25
3 -3 1 -6 -5 -6 -6 0 -13 8 -15 18 -4 13 -5 14 -6 1 -1 -22 36 -59 53 -53 22
8 39 64 25 80 -14 17 -55 18 -65 2z"/>
<path d="M1662 993 c-35 -45 -47 -79 -32 -88 6 -4 20 1 30 10 15 14 29 16 63
11 71 -11 83 25 29 87 -25 28 -57 21 -90 -20z m100 -55 c-8 -8 -9 -4 -5 13 4
13 8 18 11 10 2 -7 -1 -18 -6 -23z"/>
<path d="M40 388 c-10 -101 -8 -148 5 -148 9 0 15 10 15 26 0 14 4 23 10 19 6
-3 10 -15 10 -26 0 -10 5 -19 10 -19 6 0 10 32 10 75 0 43 -4 75 -10 75 -5 0
-10 -18 -10 -40 0 -22 -4 -40 -10 -40 -5 0 -10 18 -10 40 0 22 -4 40 -10 40
-5 0 -10 -1 -10 -2z"/>
<path d="M200 315 c0 -43 4 -75 10 -75 6 0 10 32 10 75 0 43 -4 75 -10 75 -6
0 -10 -32 -10 -75z"/>
<path d="M360 315 c0 -60 3 -75 15 -75 12 0 15 15 15 75 0 60 -3 75 -15 75
-12 0 -15 -15 -15 -75z"/>
<path d="M510 322 c0 -39 -5 -73 -12 -80 -6 -6 -8 -15 -5 -19 4 -4 15 1 24 10
12 12 19 39 21 87 4 59 2 70 -12 70 -13 0 -16 -12 -16 -68z"/>
<path d="M806 363 c-3 -16 -8 -48 -11 -73 l-7 -46 36 0 c25 0 35 4 32 12 -3 7
-8 40 -12 73 -7 65 -28 83 -38 34z m20 -91 c-11 -10 -15 4 -8 28 l7 25 3 -23
c2 -13 1 -26 -2 -30z"/>
<path d="M920 315 c0 -43 4 -75 10 -75 6 0 10 11 10 25 0 15 6 25 15 25 18 0
29 41 21 75 -5 18 -13 25 -31 25 -24 0 -25 -2 -25 -75z m40 26 c0 -11 -4 -23
-10 -26 -6 -4 -10 5 -10 19 0 14 5 26 10 26 6 0 10 -9 10 -19z"/>
<path d="M1000 315 c0 -43 4 -75 10 -75 6 0 10 14 10 30 0 17 5 30 10 30 6 0
10 -13 10 -30 0 -16 5 -30 10 -30 19 0 11 69 -10 90 -11 11 -20 29 -20 40 0
11 -4 20 -10 20 -6 0 -10 -32 -10 -75z"/>
<path d="M1365 360 c-8 -16 -15 -38 -15 -49 0 -33 22 -71 42 -71 22 0 24 25 3
34 -9 3 -15 18 -15 39 0 19 7 40 15 47 19 16 19 30 0 30 -8 0 -21 -13 -30 -30z"/>
<path d="M1516 374 c-12 -30 -7 -134 7 -134 8 0 12 22 13 75 1 71 -6 94 -20
59z"/>
<path d="M1560 315 c0 -43 4 -75 10 -75 6 0 10 32 10 75 0 43 -4 75 -10 75 -6
0 -10 -32 -10 -75z"/>
<path d="M1657 383 c-3 -5 -8 -30 -11 -58 -4 -27 -9 -57 -12 -65 -3 -12 4 -16
32 -16 l35 0 -7 66 c-7 69 -10 80 -24 80 -5 0 -11 -3 -13 -7z m23 -105 c0 -5
-4 -8 -10 -8 -5 0 -10 10 -10 23 0 18 2 19 10 7 5 -8 10 -18 10 -22z"/>
<path d="M699 358 c-6 -57 -1 -118 10 -118 12 0 20 57 13 98 -4 31 -21 45 -23
20z"/>
<path d="M131 321 c-24 -44 -1 -92 36 -76 17 8 17 8 1 12 -10 3 -18 7 -18 10
0 3 8 12 18 19 13 10 15 17 6 30 -15 26 -31 28 -43 5z"/>
<path d="M240 280 c0 -33 2 -60 5 -60 3 0 16 10 30 22 41 36 32 87 -17 95 -16
2 -18 -6 -18 -57z m40 11 c0 -6 -4 -13 -10 -16 -5 -3 -10 1 -10 9 0 9 5 16 10
16 6 0 10 -4 10 -9z"/>
<path d="M416 332 c-11 -18 -2 -92 12 -92 9 0 13 11 11 34 -2 19 0 38 4 42 4
4 7 11 7 16 0 10 -27 11 -34 0z"/>
<path d="M562 293 c3 -44 5 -48 31 -50 26 -2 27 0 27 48 0 27 -4 49 -10 49 -5
0 -10 -13 -10 -30 0 -16 -4 -30 -10 -30 -5 0 -10 14 -10 30 0 17 -5 30 -11 30
-6 0 -9 -19 -7 -47z"/>
<path d="M646 332 c-3 -5 -5 -27 -4 -51 1 -58 23 -48 24 12 2 43 -7 60 -20 39z"/>
<path d="M1092 328 c-22 -22 -12 -88 14 -88 22 0 37 50 25 77 -12 26 -21 29
-39 11z m28 -37 c0 -6 -4 -13 -10 -16 -5 -3 -10 1 -10 9 0 9 5 16 10 16 6 0
10 -4 10 -9z"/>
<path d="M1157 333 c-11 -10 -8 -93 3 -93 6 0 10 13 10 29 0 17 5 33 10 36 6
4 10 -8 10 -29 0 -36 16 -49 26 -21 10 24 -16 85 -35 85 -10 0 -21 -3 -24 -7z"/>
<path d="M1239 316 c-14 -31 1 -76 25 -76 22 0 28 17 9 24 -15 6 -15 8 2 19
21 16 16 50 -8 55 -10 2 -21 -6 -28 -22z m28 -18 c-3 -8 -6 -5 -6 6 -1 11 2
17 5 13 3 -3 4 -12 1 -19z"/>
<path d="M1453 321 c3 -12 -1 -22 -9 -25 -8 -3 -14 -17 -14 -31 0 -22 4 -24
33 -22 30 3 32 5 29 37 -4 36 -17 60 -34 60 -6 0 -8 -9 -5 -19z m14 -53 c-3
-8 -6 -5 -6 6 -1 11 2 17 5 13 3 -3 4 -12 1 -19z"/>
<path d="M1722 293 c3 -43 5 -48 28 -49 14 -1 31 3 38 8 15 13 17 92 2 83 -6
-4 -8 -14 -6 -23 3 -10 1 -24 -4 -32 -7 -11 -10 -7 -10 17 0 17 -4 35 -10 38
-6 4 -10 -9 -10 -32 -1 -31 -2 -35 -11 -20 -6 10 -8 25 -5 32 3 8 1 17 -5 21
-7 4 -9 -12 -7 -43z"/>
<path d="M1837 333 c-4 -3 -2 -12 4 -19 9 -10 7 -15 -5 -20 -9 -3 -16 -17 -16
-29 0 -20 5 -24 30 -23 26 1 30 5 30 30 0 47 -24 81 -43 61z m23 -59 c0 -8 -5
-12 -10 -9 -6 4 -8 11 -5 16 9 14 15 11 15 -7z"/>
<path d="M1900 301 c0 -22 5 -43 10 -46 6 -3 10 -15 10 -26 0 -37 17 -19 28
32 15 62 15 69 2 69 -5 0 -10 -9 -10 -19 0 -11 -4 -23 -10 -26 -6 -4 -10 7
-10 24 0 17 -4 31 -10 31 -5 0 -10 -18 -10 -39z"/>
</g>
</svg>
